# xmcd
#
# Track frame offsets:
#	150
#	20840
#	40835
#	58595
#	75507
#	94235
#	110010
#	127740
#	145480
#	165577
#	181905
#	197827
#	217080
#	234157
#	248545
#	266585
#	282135
#	306302
#	324000
#
# Disc length: 4558 seconds
#
# Revision: 1
# Processed by: cddbd v1.5.2PL0 Copyright (c) Steve Scherf et al.
# Submitted via: audiograbber 1.83.01
#
DISCID=0511cc13
DTITLE=—борник - Duets for lovers
DYEAR=1900
DGENRE=
TTITLE0=the time of my life
TTITLE1=on my own
TTITLE2=I just can't stop loving you
TTITLE3=islands in the stream
TTITLE4=up where we belong
TTITLE5=I got you babe
TTITLE6=somewhere out there
TTITLE7=all of you
TTITLE8=the flame of paradise
TTITLE9=tonight I celebrate my love
TTITLE10=my guy
TTITLE11=endless love
TTITLE12=we've got tonight
TTITLE13=how many times can we say goodbye
TTITLE14=the music of goodbye
TTITLE15=with you I'm born again
TTITLE16=piano in the dark
TTITLE17=you and I
TTITLE18=separate lives
EXTD=
EXTT0=
EXTT1=
EXTT2=
EXTT3=
EXTT4=
EXTT5=
EXTT6=
EXTT7=
EXTT8=
EXTT9=
EXTT10=
EXTT11=
EXTT12=
EXTT13=
EXTT14=
EXTT15=
EXTT16=
EXTT17=
EXTT18=
PLAYORDER=
